<?xml version="1.0" encoding="utf-8"?>
<!-- Generator: Adobe Illustrator 17.1.0, SVG Export Plug-In . SVG Version: 6.00 Build 0)  -->
<!DOCTYPE svg PUBLIC "-//W3C//DTD SVG 1.1//EN" "http://www.w3.org/Graphics/SVG/1.1/DTD/svg11.dtd">
<svg version="1.1" id="Layer_1" xmlns="http://www.w3.org/2000/svg" xmlns:xlink="http://www.w3.org/1999/xlink" x="0px" y="0px"
	 viewBox="8 187.5 611.9 612" enable-background="new 8 187.5 611.9 612" xml:space="preserve">
<g>
	<path fill="#FFFFFF" d="M382.6,406.6c13.6,0,20.3-10.6,20.3-31.8c0-20-6.8-30-20.3-30c-13.6,0-20.3,10-20.3,30
		C362.3,396,369.1,406.6,382.6,406.6z"/>
	<path fill="#FFFFFF" d="M313.9,187.5C145,187.5,8,324.6,8,493.6s137,305.9,305.9,305.9s305.9-137,305.9-305.9
		S482.9,187.5,313.9,187.5z M288.8,683.6c-8.6,24-25.6,35.9-50.7,35.9c-25.3,0-42.1-12-50.7-35.9c-4.7-14-7.1-36.4-7.1-67.7
		c0-31.5,2.4-54.1,7.1-67.7c8.2-24,25.2-35.9,50.7-35.9s42.5,12,50.7,35.9c4.7,13.3,7.1,35.8,7.1,67.7
		C295.9,647.1,293.5,669.6,288.8,683.6z M309.1,473c0,3.1-2.1,4.6-6.2,4.6h-10.2c-3.5,0-6.1-1.7-7.7-5.2l-67.7-149.1
		c-0.4-0.8-0.8-1.2-1.2-1.2c-0.6,0-1.1,0.5-1.5,1.5v148.9c0,3.1-2.1,4.6-6.2,4.6h-8.3c-4.1,0-6.2-1.6-6.2-4.9V281.7
		c0-2.9,2.1-4.3,6.2-4.3l12.3-0.3c3.9,0,6.6,1.5,8,4.6l62.2,137.1c0.4,0.8,1.1,1.2,2.1,1.2s1.5-0.6,1.5-1.8V281.4
		c0-2.9,1.7-4.3,5.2-4.3h12.6c3.3,0,4.9,1.4,4.9,4.3V473L309.1,473z M352.6,343.9c7.2-9.9,17.1-14.8,30-14.8
		c12.7,0,22.7,4.9,30,14.8c6.4,8.6,9.5,19.4,9.5,32.2c0,13.3-3.1,24.1-9.2,32.2c-6.8,9.2-16.8,13.9-30.3,13.9
		c-13.1,0-23.3-4.6-30.3-13.9c-6-8.2-8.9-19-8.9-32.2C343.2,363.3,346.3,352.5,352.6,343.9z M419.8,461.6v9.9c0,3.7-1.7,5.5-5.2,5.5
		h-64c-3.7,0-5.5-1.8-5.5-5.5v-9.9c0-3.5,1.7-5.2,5.2-5.2h64.3C418.1,456.4,419.8,458.1,419.8,461.6z M420.4,703.1
		c-11.1,11-25.3,16.4-42.4,16.4c-28.5,0-47.2-13.2-56.3-39.6c-1.4-3.9-0.9-6.5,1.5-7.7l9.5-4.6c1.4-0.6,2.9-0.8,4.3-0.6
		c1.8,0.4,2.9,1.2,3.1,2.5c1.8,9.7,6.3,17.2,13.2,22.9c7,5.6,15.4,8.4,25.3,8.4c11.3,0,20.4-3.5,27.4-10.5c7-7,10.5-16.4,10.5-28.3
		c0-29-16.1-43.3-48.3-43.3c-3.3,0-4.9-1.6-4.9-4.9v-8.8c0-3.5,1.5-5.2,4.6-5.2c12.7,0,22.6-3.2,29.7-9.5s10.6-15.4,10.6-27.1
		c0-9.2-3.1-16.8-9.2-22.9s-13.6-9-22.2-9c-14.6,0-24.6,7.6-30.2,22.8c-0.4,1.2-1.4,2-3.1,2.2c-1.6,0.4-3,0.3-4-0.3l-8-5.2
		c-2.9-1.8-3.6-4.3-2.2-7.4c9.2-20.5,25.7-30.7,49.2-30.7c14,0,25.8,5,35.4,15.2s14.5,22.6,14.5,37.4c0,13.8-5.3,25.8-16,36.2
		c-1.6,1.6-2.5,3.6-2.5,5.9c0,2.1,0.8,3.6,2.5,4.6c16.4,10.5,24.6,26.4,24.6,47.6C437,677.5,431.5,692.2,420.4,703.1z"/>
	<path fill="#FFFFFF" d="M238.1,530.2c-17.5,0-28.6,10.7-33.5,31.9c-2.1,9.2-3.1,27.2-3.1,53.8c0,26.5,1.1,44.4,3.4,53.8
		c4.9,21.4,16,31.9,33.3,31.9c17.5,0,28.6-10.7,33.5-31.9c2.1-9.2,3.1-27.2,3.1-53.8c0-26.5-1.1-44.4-3.4-53.8
		C266.4,540.8,255.3,530.2,238.1,530.2z"/>
</g>
</svg>
