<?xml version="1.0" encoding="utf-8"?>
<!-- Generator: Adobe Illustrator 17.1.0, SVG Export Plug-In . SVG Version: 6.00 Build 0)  -->
<!DOCTYPE svg PUBLIC "-//W3C//DTD SVG 1.1//EN" "http://www.w3.org/Graphics/SVG/1.1/DTD/svg11.dtd">
<svg version="1.1" id="Layer_1" xmlns="http://www.w3.org/2000/svg" xmlns:xlink="http://www.w3.org/1999/xlink" x="0px" y="0px"
	 viewBox="8 98 596.1 596.1" enable-background="new 8 98 596.1 596.1" xml:space="preserve">
<g>
	<path fill="#FFFFFF" d="M306,98C141.4,98,8,231.4,8,396s133.4,298,298,298c164.6,0,298-133.4,298-298C604,231.4,470.6,98,306,98z
		 M379.7,231.2c26.4,0,38.3,22.8,38.3,45.8c0,24-10.8,44.9-38.3,44.9c-27.2,0-38-21-38-44.9C341.6,253.9,353.3,231.2,379.7,231.2z
		 M415.9,360.2v9.6c0,2.7-2.1,5.1-5.1,5.1h-62.3c-3,0-5.4-2.4-5.4-5.1v-9.6c0-2.7,2.4-5.1,5.1-5.1h62.6
		C413.5,355.1,415.9,357.5,415.9,360.2z M239.2,611.4c-56,0-56.3-59.9-56.3-100.9c0-41.3-0.6-100.9,56.3-100.9s56.3,59.6,56.3,100.9
		C295.5,551.6,295.2,611.4,239.2,611.4z M308.1,371.3c0,2.1-2.7,4.5-6,4.5h-9.9c-3,0-5.4-0.3-7.5-5.1l-65.9-145.2
		c-1.5-3-2.7,0.3-2.7,0.3V371c0,2.1-3,4.5-6,4.5h-8.1c-3,0-6-2.1-6-4.8V185.1c0-2.1,3-4.2,6-4.2l12-0.3c4.2,0,5.7,0.6,7.8,4.5
		l60.5,133.6c0.6,1.8,3.6,1.8,3.6-0.6V184.8c0-2.4,2.1-4.2,5.1-4.2h12.3c3,0,4.8,2.1,4.8,4.2L308.1,371.3L308.1,371.3z M354.8,588.7
		h67.7c2.4,0,4.5,2.4,4.5,5.1v8.7c0,2.7-2.1,5.1-4.2,5.1h-90.4c-2.4,0-5.4-2.4-5.4-5.1c0-4.5-0.3-12.9-0.3-16.8
		c0-68.3,81.5-69.5,81.5-122.2c0-26.4-13.2-35.6-26.3-35.6c-21.6,0-32.3,12.9-33.2,33.5c0,2.7-2.1,5.1-4.5,5.1h-10.2
		c-2.7,0-5.1-2.4-5.1-4.8c1.8-32.9,20.7-52.1,53.3-52.1c29.6,0,47,21.3,47,51.8c0,45.2-39.5,59.3-66.5,86.2
		c-13.2,13.5-15.3,19.5-15.3,32.6C347.3,583.3,348.2,588.7,354.8,588.7z"/>
	<path fill="#FFFFFF" d="M239.2,427c-39.2,0-35.6,55.4-35.6,83.6c0,28.1-3.3,83.5,35.6,83.5c39.2,0,35.6-55.4,35.6-83.5
		C274.9,482.4,278.2,427,239.2,427z"/>
	<path fill="#FFFFFF" d="M379.7,306.6c16.2,0,19.8-18,19.8-30.8c0-12-3.9-29-19.8-29c-15.6,0-19.8,17.1-19.8,29
		C359.9,288.7,363.5,306.6,379.7,306.6z"/>
</g>
</svg>
