<?xml version="1.0" encoding="utf-8"?>
<!-- Generator: Adobe Illustrator 17.1.0, SVG Export Plug-In . SVG Version: 6.00 Build 0)  -->
<!DOCTYPE svg PUBLIC "-//W3C//DTD SVG 1.1//EN" "http://www.w3.org/Graphics/SVG/1.1/DTD/svg11.dtd">
<svg version="1.1" id="Layer_1" xmlns="http://www.w3.org/2000/svg" xmlns:xlink="http://www.w3.org/1999/xlink" x="0px" y="0px"
	 viewBox="8.2 98.2 590.8 590.7" enable-background="new 8.2 98.2 590.8 590.7" xml:space="preserve">
<g>
	<path fill="#FFFFFF" d="M378.7,305.1c16,0,19.6-17.8,19.6-30.6c0-11.9-3.9-28.8-19.6-28.8c-15.4,0-19.6,16.9-19.6,28.8
		C359.1,287.2,362.7,305.1,378.7,305.1z"/>
	<path fill="#FFFFFF" d="M239.5,424.3c-38.9,0-35.3,54.9-35.3,82.8c0,27.9-3.3,82.8,35.3,82.8c38.9,0,35.3-54.9,35.3-82.8
		C274.8,479.2,278.1,424.3,239.5,424.3z"/>
	<path fill="#FFFFFF" d="M303.6,98.2C140.5,98.2,8.2,230.5,8.2,393.6S140.5,689,303.6,689S599,556.7,599,393.6
		S466.8,98.2,303.6,98.2z M378.7,230.3c26.1,0,38,22.6,38,45.4c0,23.7-10.7,44.5-38,44.5c-27,0-37.7-20.8-37.7-44.5
		C341,252.8,352.6,230.3,378.7,230.3z M414.6,358.2v9.5c0,2.7-2.1,5-5,5h-61.7c-3,0-5.3-2.4-5.3-5v-9.5c0-2.7,2.4-5,5-5h62
		C412.2,353.1,414.6,355.5,414.6,358.2z M239.5,607.2c-55.5,0-55.8-59.4-55.8-100c0-41-0.6-100,55.8-100s55.8,59.1,55.8,100
		C295.3,547.8,295,607.2,239.5,607.2z M307.8,369.2c0,2.1-2.7,4.4-5.9,4.4H292c-3,0-5.3-0.3-7.4-5l-65.3-143.9
		c-1.5-3-2.7,0.3-2.7,0.3v143.9c0,2.1-3,4.5-5.9,4.5h-8c-3,0-5.9-2.1-5.9-4.7v-184c0-2.1,3-4.2,5.9-4.2l11.9-0.3
		c4.2,0,5.6,0.6,7.7,4.5l60,132.4c0.6,1.8,3.6,1.8,3.6-0.6V184.3c0-2.4,2.1-4.2,5-4.2H303c3,0,4.7,2.1,4.7,4.2V369.2z M423.5,598.3
		c0,2.7-2.1,5-4.5,5h-74.2c-2.4,0-4.5-2.4-4.5-5v-7.7c0-3,2.1-5.3,4.5-5.3h24.3c1.5,0,3.3-1.8,3.3-3.9V473.6
		c0-8.6-3.3-12.5-11.6-12.5c-5.6-0.3-15.1,3-21.1,5.6c-2.4,1.2-3.3-0.9-3.9-2.7l-2.7-6.5c-1.2-3.3-0.3-4.2,2.1-5.3
		c16.3-7.7,30.6-15.7,41-41.3c0.3-0.6,1.2-1.5,3.6-1.5h8.3c1.8,0,3.3,1.2,3.3,3v168.9c0,2.1,1.5,3.9,3,3.9h24.6
		c2.1,0,4.5,2.4,4.5,5.3L423.5,598.3L423.5,598.3z"/>
</g>
</svg>
