<?xml version="1.0" encoding="utf-8"?>
<!-- Generator: Adobe Illustrator 16.0.0, SVG Export Plug-In . SVG Version: 6.00 Build 0)  -->
<!DOCTYPE svg PUBLIC "-//W3C//DTD SVG 1.1//EN" "http://www.w3.org/Graphics/SVG/1.1/DTD/svg11.dtd">
<svg version="1.1" id="Layer_1" xmlns="http://www.w3.org/2000/svg" xmlns:xlink="http://www.w3.org/1999/xlink" x="0px" y="0px"
	 viewBox="0 0 304.232 90.866" enable-background="new 0 0 304.232 90.866"
	 xml:space="preserve">
<g>
	<path fill="#FFC72A" stroke="#FFFFFF" stroke-miterlimit="10" d="M94.189,82.911c0,1.159-0.131,2.145-0.393,2.957
		s-0.7,1.546-1.316,2.2c-0.711,0.766-1.519,1.34-2.425,1.723c-0.906,0.383-1.873,0.575-2.9,0.575c-0.99,0-1.92-0.177-2.788-0.533
		c-0.869-0.354-1.64-0.869-2.312-1.541c-0.467-0.467-0.826-0.953-1.079-1.458c-0.252-0.504-0.439-1.069-0.561-1.695
		s-0.191-1.336-0.21-2.13c-0.019-0.794-0.028-1.723-0.028-2.788s0.01-1.994,0.028-2.789c0.019-0.794,0.089-1.503,0.21-2.13
		c0.121-0.626,0.309-1.191,0.561-1.695c0.253-0.504,0.612-0.99,1.079-1.458c1.383-1.382,3.083-2.074,5.101-2.074
		c0.953,0,1.825,0.145,2.621,0.434c0.794,0.29,1.489,0.701,2.087,1.233c0.598,0.532,1.088,1.163,1.472,1.892
		c0.383,0.729,0.648,1.532,0.798,2.41h-2.129c-0.281-1.271-0.846-2.265-1.696-2.985c-0.85-0.719-1.9-1.079-3.152-1.079
		c-0.654,0-1.285,0.126-1.892,0.378c-0.607,0.252-1.126,0.603-1.556,1.051c-0.317,0.318-0.57,0.658-0.757,1.023
		c-0.187,0.364-0.326,0.798-0.42,1.303c-0.094,0.504-0.154,1.117-0.183,1.835c-0.027,0.719-0.042,1.602-0.042,2.648
		s0.015,1.929,0.042,2.648c0.028,0.719,0.089,1.336,0.183,1.849c0.094,0.514,0.233,0.953,0.42,1.318
		c0.187,0.364,0.439,0.705,0.757,1.022c0.43,0.448,0.948,0.794,1.556,1.037c0.606,0.243,1.237,0.364,1.892,0.364
		c0.729,0,1.424-0.145,2.088-0.435c0.663-0.29,1.229-0.714,1.695-1.275c0.411-0.486,0.7-1.013,0.869-1.583
		c0.168-0.57,0.252-1.247,0.252-2.032v-1.513h-4.904v-1.878h7.034V82.911z"/>
	<path fill="#FFC72A" stroke="#FFFFFF" stroke-miterlimit="10" d="M98.394,83.584v-1.878h7.679v1.878H98.394z"/>
	<path fill="#FFC72A" stroke="#FFFFFF" stroke-miterlimit="10" d="M124.681,76.102c0,0.896-0.149,1.709-0.448,2.438
		s-0.72,1.345-1.262,1.85s-1.191,0.897-1.947,1.177c-0.758,0.28-1.594,0.42-2.508,0.42h-5.298v8.211h-2.129V70.244h7.427
		c0.914,0,1.75,0.136,2.508,0.406c0.756,0.271,1.405,0.664,1.947,1.177c0.542,0.514,0.963,1.131,1.262,1.85
		C124.531,74.396,124.681,75.205,124.681,76.102z M122.551,76.102c0-1.327-0.393-2.316-1.177-2.971
		c-0.785-0.654-1.804-0.981-3.055-0.981h-5.102v7.931h5.102c1.251,0,2.27-0.332,3.055-0.995
		C122.158,78.423,122.551,77.428,122.551,76.102z"/>
	<path fill="#FFC72A" stroke="#FFFFFF" stroke-miterlimit="10" d="M140.206,90.198l-4.54-8.855h-4.792v8.855h-2.13V70.244h7.65
		c0.878,0,1.677,0.126,2.396,0.378c0.719,0.252,1.34,0.617,1.863,1.093c0.522,0.477,0.929,1.061,1.219,1.751
		c0.29,0.692,0.435,1.467,0.435,2.326c0,1.458-0.401,2.648-1.204,3.573c-0.805,0.925-1.851,1.518-3.14,1.78l4.736,9.052H140.206z
		 M140.178,75.821c0-1.233-0.369-2.153-1.106-2.761c-0.739-0.607-1.696-0.911-2.873-0.911h-5.324v7.314h5.324
		c1.177,0,2.134-0.298,2.873-0.897C139.809,77.97,140.178,77.054,140.178,75.821z"/>
	<path fill="#FFC72A" stroke="#FFFFFF" stroke-miterlimit="10" d="M160.327,80.221c0,1.065-0.009,1.994-0.027,2.788
		c-0.02,0.794-0.089,1.504-0.211,2.13c-0.121,0.626-0.308,1.191-0.561,1.695c-0.252,0.504-0.611,0.991-1.079,1.458
		c-0.672,0.672-1.438,1.187-2.297,1.541c-0.86,0.355-1.794,0.533-2.803,0.533c-2.018,0-3.718-0.691-5.101-2.074
		c-0.468-0.467-0.827-0.953-1.079-1.458s-0.439-1.069-0.561-1.695s-0.192-1.336-0.21-2.13c-0.02-0.794-0.028-1.723-0.028-2.788
		s0.009-1.994,0.028-2.789c0.018-0.794,0.089-1.503,0.21-2.13c0.121-0.626,0.309-1.191,0.561-1.695s0.611-0.99,1.079-1.458
		c1.383-1.382,3.083-2.074,5.101-2.074s3.718,0.691,5.1,2.074c0.468,0.467,0.827,0.953,1.079,1.458
		c0.253,0.504,0.439,1.069,0.561,1.695c0.122,0.626,0.191,1.336,0.211,2.13C160.318,78.227,160.327,79.156,160.327,80.221z
		 M158.197,80.221c0-1.046-0.014-1.929-0.042-2.648c-0.028-0.719-0.089-1.331-0.182-1.835c-0.095-0.505-0.234-0.939-0.421-1.303
		c-0.187-0.365-0.438-0.705-0.757-1.023c-0.43-0.449-0.948-0.799-1.555-1.051c-0.607-0.252-1.238-0.378-1.892-0.378
		c-0.654,0-1.285,0.126-1.892,0.378c-0.607,0.252-1.126,0.603-1.557,1.051c-0.316,0.318-0.569,0.658-0.756,1.023
		c-0.187,0.364-0.327,0.798-0.42,1.303c-0.095,0.504-0.155,1.117-0.183,1.835c-0.028,0.719-0.042,1.602-0.042,2.648
		s0.014,1.929,0.042,2.648c0.027,0.719,0.088,1.331,0.183,1.835c0.093,0.504,0.233,0.939,0.42,1.303s0.439,0.706,0.756,1.023
		c0.431,0.448,0.949,0.798,1.557,1.051c0.606,0.252,1.237,0.378,1.892,0.378c0.653,0,1.284-0.126,1.892-0.378
		c0.606-0.252,1.125-0.603,1.555-1.051c0.318-0.317,0.57-0.659,0.757-1.023s0.326-0.799,0.421-1.303
		c0.093-0.504,0.153-1.116,0.182-1.835S158.197,81.268,158.197,80.221z"/>
	<path fill="#FFC72A" stroke="#FFFFFF" stroke-miterlimit="10" d="M172.827,84.145c0,0.953-0.154,1.817-0.463,2.592
		c-0.308,0.775-0.738,1.429-1.289,1.962c-0.552,0.532-1.206,0.943-1.962,1.233c-0.757,0.29-1.594,0.435-2.508,0.435
		c-0.953,0-1.799-0.145-2.536-0.435c-0.739-0.29-1.415-0.743-2.032-1.359l1.429-1.429c0.188,0.187,0.379,0.36,0.575,0.518
		c0.196,0.159,0.415,0.299,0.658,0.42c0.243,0.122,0.519,0.215,0.827,0.28c0.308,0.066,0.668,0.098,1.079,0.098
		c1.307,0,2.316-0.397,3.026-1.191s1.064-1.929,1.064-3.405v-13.62h2.131V84.145z"/>
	<path fill="#FFC72A" stroke="#FFFFFF" stroke-miterlimit="10" d="M178.319,90.198V70.244h12.388v1.906h-10.258v7.034h8.744v1.906
		h-8.744v7.203h10.258v1.905H178.319z"/>
	<path fill="#FFC72A" stroke="#FFFFFF" stroke-miterlimit="10" d="M208.278,84.425c-0.169,0.935-0.454,1.771-0.855,2.508
		c-0.401,0.738-0.906,1.359-1.513,1.864c-0.607,0.504-1.294,0.893-2.061,1.163c-0.766,0.271-1.597,0.406-2.494,0.406
		c-0.99,0-1.92-0.177-2.788-0.533c-0.869-0.354-1.64-0.869-2.312-1.541c-0.467-0.467-0.827-0.953-1.079-1.458
		s-0.438-1.069-0.561-1.695c-0.121-0.626-0.191-1.336-0.21-2.13c-0.019-0.794-0.027-1.723-0.027-2.788s0.009-1.994,0.027-2.789
		c0.019-0.794,0.089-1.503,0.21-2.13c0.122-0.626,0.309-1.191,0.561-1.695s0.612-0.99,1.079-1.458
		c0.673-0.673,1.443-1.187,2.312-1.542c0.868-0.354,1.798-0.532,2.788-0.532c0.897,0,1.729,0.136,2.494,0.406
		c0.767,0.271,1.453,0.659,2.061,1.163c0.606,0.504,1.111,1.125,1.513,1.864s0.687,1.574,0.855,2.508h-2.187
		c-0.262-1.233-0.804-2.214-1.625-2.943c-0.822-0.729-1.859-1.093-3.111-1.093c-0.654,0-1.284,0.122-1.892,0.364
		s-1.126,0.588-1.556,1.037c-0.317,0.318-0.569,0.659-0.757,1.023c-0.187,0.364-0.326,0.804-0.42,1.317
		c-0.094,0.514-0.154,1.131-0.182,1.85c-0.028,0.719-0.043,1.602-0.043,2.648s0.015,1.929,0.043,2.648
		c0.027,0.719,0.088,1.336,0.182,1.849c0.094,0.514,0.233,0.953,0.42,1.318c0.188,0.364,0.439,0.705,0.757,1.022
		c0.43,0.448,0.948,0.794,1.556,1.037s1.237,0.364,1.892,0.364c1.252,0,2.299-0.364,3.139-1.093
		c0.841-0.729,1.392-1.709,1.653-2.943H208.278z"/>
	<path fill="#FFC72A" stroke="#FFFFFF" stroke-miterlimit="10" d="M218.283,72.15v18.048h-2.131V72.15h-5.772v-1.906h13.676v1.906
		H218.283z"/>
</g>
<rect y="61.035" fill="#FFFFFF" width="304.232" height="0.781"/>
<g>
	<path fill="#FFFFFF" d="M51.943,46.884c0,0,3.539,0.732,3.539-3.294V8.085h6.588v36.542c0,4.82-2.318,9.151-10.127,8.724V46.884z"
		/>
	<path fill="#FFFFFF" d="M64.814,52.923l6.771-44.838h8.053l6.771,44.838h-6.404l-1.221-9.151h-6.344l-1.221,9.151H64.814z
		 M75.979,22.665l-0.183-1.159H75.43l-0.183,1.159l-1.892,14.153h4.515L75.979,22.665z"/>
	<path fill="#FFFFFF" d="M95.684,22.421l0.184,0.427h0.123l0.182-0.427l3.295-14.336h6.467l-6.711,25.744v19.094h-6.588V33.829
		L85.924,8.085h6.467L95.684,22.421z"/>
	<path fill="#FFFFFF" d="M127.65,52.923h-5.123l-6.039-44.838h6.1l2.623,23.304l0.123,1.464h0.486l0.184-1.464l2.807-23.304
		c0,0,4.697,0,4.758,0l2.807,23.304l0.184,1.464h0.488l0.121-1.464l2.623-23.304h6.102l-6.041,44.838h-5.123l-3.051-21.229
		l-0.365-2.624h-0.244l-0.367,2.624L127.65,52.923z"/>
	<path fill="#FFFFFF" d="M145.895,52.923l6.771-44.838h8.053l6.771,44.838h-6.406l-1.221-9.151h-6.344l-1.221,9.151H145.895z
		 M157.057,22.665l-0.182-1.159h-0.367l-0.182,1.159l-1.893,14.153h4.516L157.057,22.665z"/>
	<path fill="#FFFFFF" d="M166.881,14.856V8.085h19.033v6.771h-6.223v38.067h-6.588V14.856H166.881z"/>
	<path fill="#FFFFFF" d="M196.652,7.597c7.93-0.183,9.211,6.894,9.211,11.896l-6.467,0.61c0-2.989-0.428-6.467-2.623-6.467
		c-1.709,0.061-2.258,1.891-2.258,4.454c0,3.05,2.623,6.466,5.186,10.188c3.051,4.576,6.162,9.029,6.162,13.848
		c0,5.979-1.953,11.286-9.15,11.286c-8.48,0-9.578-6.406-9.578-13.055l6.467-0.61c0,3.721,0.365,7.625,3.111,7.625
		c1.951,0,2.684-2.135,2.684-4.941c0-2.989-2.807-6.588-5.307-10.371c-3.111-4.575-6.041-9.15-6.041-13.97
		C188.049,13.209,190.43,7.719,196.652,7.597z"/>
	<path fill="#FFFFFF" d="M217.76,53.412c-8.846,0-8.785-9.7-8.785-9.7V17.296c0,0-0.061-9.7,8.785-9.7s8.783,9.7,8.783,9.7v26.415
		C226.543,43.711,226.605,53.412,217.76,53.412z M217.76,14.002c-2.318,0-2.197,3.294-2.197,3.294v26.415
		c0,0-0.121,3.294,2.197,3.294s2.195-3.294,2.195-3.294V17.296C219.955,17.296,220.078,14.002,217.76,14.002z"/>
	<path fill="#FFFFFF" d="M237.951,29.559l-0.549-2.074h-0.365v2.074v23.365h-6.039V8.085h5.855l6.406,23.365l0.549,2.074h0.365
		V31.45V8.085h6.039v44.838h-5.855L237.951,29.559z"/>
</g>
</svg>
