<?xml version="1.0" encoding="utf-8"?>
<!-- Generator: Adobe Illustrator 17.1.0, SVG Export Plug-In . SVG Version: 6.00 Build 0)  -->
<!DOCTYPE svg PUBLIC "-//W3C//DTD SVG 1.1//EN" "http://www.w3.org/Graphics/SVG/1.1/DTD/svg11.dtd">
<svg version="1.1" id="Layer_1" xmlns="http://www.w3.org/2000/svg" xmlns:xlink="http://www.w3.org/1999/xlink" x="0px" y="0px"
	 viewBox="0 0 273 83" enable-background="new 0 0 273 83" xml:space="preserve">
<path fill="#D364A1" d="M7,41.3c0.1,1.3,0.2,2.6,0,3.9c0.1-1,1,0.1,0.4-0.8c-0.2-0.3-0.5-0.7-0.7-1c-1.2-1.9-2-4.1-2.6-6.3
	C0.9,25.8,2.5,12.9,4.2,1.4C3.6,1.6,3,1.7,2.3,1.9c9.5,8.2,17.8,19.3,21.5,31.3c3,9.9,0.3,21-2.5,30.7c-1.7,6-4.3,12-8.5,16.6
	c-1,1.1,0.6,2.7,1.6,1.6c4-4.3,6.5-9.7,8.4-15.3c3.2-9.4,5.7-20.6,4.1-30.5C24.7,22.6,14.3,9.3,3.9,0.3C3.4-0.2,2.2-0.1,2.1,0.8
	C0.1,13.7-1.8,28.7,3.2,41.2c0.8,2,1.9,4.1,3.4,5.7c2.8,3,2.8-4.8,2.7-5.6C9.1,39.9,6.9,39.9,7,41.3L7,41.3 M36.7,45.3
	c2.4-1.5,6.7-6,4.5-9.2c-2.1-3.1-6.1-1-8.3,0.9c-6.7,6,7.2,20.5,11.4,8.1c0.9-2.7,2-10.5-1.4-12.1c-3.2-1.5-1.8,5.3-1.6,6.3
	c2.8,10.5,18.5,8.7,13.7-2.9c-0.5-1.1-2.3-1.1-2.2,0.3c0.1,2.8,0.9,7.4,3.9,8.5c3,1.1,12.3,0.7,11.6-4.2c-0.2-1.4-2.3-1.5-2.2,0
	c0,4.5,0.2,9.1,0.6,13.6c0.2,3.1,0.1,10.7,3.5,12.4c1.3,0.6,2.4-1.3,1.1-1.9c-2.8-1.3-2.4-10.8-2.6-13.4c-0.2-3.5-0.3-7.1-0.3-10.6
	c-0.8,0-1.5,0-2.2,0c0.3,2.3-4.7,2.2-5.9,2.3c-2.2,0.2-3.7-0.7-4.5-2.9c-0.4-1.2-0.6-2.4-0.6-3.7c-0.7,0.1-1.5,0.2-2.2,0.3
	c1.1,2.6,1.8,6-1.6,7.2c-2.5,0.9-5.2-1-6.5-2.9c-1-1.4-1.5-3.3-1.7-5.1c0.1-1-0.1-1-0.6,0c0.4,1.2,0.4,2.6,0.4,3.9
	c0,2.1-0.5,4.1-1.3,6c-3.1,1.7-5.3,1.2-6.7-1.5c-1.4-2-2-4.2-0.3-6.2c1.1-1.3,6.6-4,4.3,1.5c-0.6,1.3-2,2.5-3.1,3.2
	C34.3,44.1,35.5,46.1,36.7,45.3L36.7,45.3 M66.3,32.8C65.6,25,77.2,21,82.7,19.4c10.6-3,21.8-4.6,32.8-5.4c4.5-0.3,9.2-0.5,13.7,0.2
	c4.1,0.6,5.2,2.2,4.6,6.2c-1.6,11.5-14.6,17.1-24.3,20.1c-1.4,0.4-0.8,2.6,0.6,2.2c10.8-3.3,23.6-9.3,25.9-21.7
	c0.4-2.3,0.8-5.7-1.4-7.3c-3.4-2.4-8.5-2.2-12.4-2.2c-13.4-0.1-27.3,2.2-40.2,5.7C75.6,19,63.2,23.9,64,32.8
	C64.1,34.3,66.4,34.3,66.3,32.8L66.3,32.8 M90.2,32.9c3.4,7.9,6.4,19.8,0.4,27.1c-0.9,1.1,0.7,2.7,1.6,1.6
	c6.7-8.3,3.8-20.9-0.1-29.9C91.5,30.4,89.6,31.6,90.2,32.9L90.2,32.9 M104.9,39.7c1.7,3.4,13.9,28.4,18.9,20.5
	c0.8-1.2-1.2-2.4-1.9-1.1c-1.7,2.6-8.8-9-9.5-10.3c-2-3.3-3.8-6.7-5.5-10.2C106.2,37.2,104.3,38.4,104.9,39.7L104.9,39.7
	 M125.4,46.5c-2.6,3.6-4.9,9.5,0.5,11.5c2.2,0.8,4.9-0.9,6-2.7c2.6-4.1,2.3-8.6,0.7-13c-0.6,0.4-1.1,0.8-1.7,1.3
	c3.3,1.9,7.2,4.1,9.3,7.3c1.6,2.4-4.9,8.2,1.9,7.8c8.2-0.5,16.9-9.3,15-17.7c-1-4.7-4-7.7-7.8-10.5c-1-0.8-2.1-1.5-3-2.3
	c-0.6-0.5-0.9-1.1-1-1.8c-1.5-0.2-2,0-1.5,0.6c0.8,1.3,1.3,3,1.8,4.4c2.7,7.3,4.5,14.9,7.1,22.2c0.2,0.5,0.6,0.8,1.1,0.8
	c2.1,0,3.4-4.9,4.2-6.4c0.3-0.6,0.6-1.2,1-1.8c-0.9-0.9-1.3-0.9-0.9-0.1c0.1,0.4,0.2,0.9,0.4,1.3c0.6,1.8,1.6,3.4,2.9,4.9
	c4.4,4.9,20.9,2.4,16.6-5.7c-3.9-7.4-13.9,0.6-9.5,4.9c2.7,2.6,7,3.7,10.6,2.5c4.6-1.6,5.2-7.4,5.1-11.4c0-1.5-2.2-1.4-2.2,0
	c-0.3,9.9-0.8,20.1,0.2,30c0.1,1.4,2.4,1.4,2.2,0c-1-9.9-0.6-20.1-0.2-30c-0.8,0-1.5,0-2.2,0c0.1,5.9-2.1,11.2-8.8,9.2
	c-6.9-2.1,0.9-9.9,3-3.6c1.5,4.6-8,5-10.3,4.4c-4.4-1.1-4.1-5-5.9-8.1c-0.8-1.4-2.2-0.2-2.8,0.6c-1.6,2.1-2.3,4.8-3.7,7.1
	c0.7-1.2,1.8,1.8,1.1-0.9c-0.3-1.2-0.7-2.4-1.1-3.6c-2-6.6-4-13.1-6.6-19.5c-0.5-1.2-3.5-5.9-3.7-1.8c-0.1,2,1.7,3.5,3.1,4.6
	c4.3,3.2,8.2,5.9,8.9,11.7c0.7,5.4-3.5,9.5-7.8,12c-1.5,0.9-3.2,1.5-4.9,1.8c-2.1,0.5,0.4-3.3,0.4-4.3c-0.1-4.8-7.1-8.4-10.7-10.5
	c-0.8-0.5-2,0.3-1.7,1.3c1,2.8,1.5,5.4,0.9,8.4c-0.4,2.1-6,8.1-6.7,2.5c-0.2-2,1.5-4.5,2.6-6.1C128.2,46.5,126.3,45.4,125.4,46.5
	L125.4,46.5 M199.4,50.3c-1.5-1.3-7.3-6.1-8.6-2.3c-1.7,4.9,4.6,6.9,8.2,7.5c3.8,0.6,11.1,0.6,12.6-4c2.5-7.4-5.1-12.1-6.2-18.5
	c-0.1-0.7-1.1-1-1.7-0.7c-2.8,1.8,0,11.9,0.7,14.3c1.4,4.4,6.9,10.8,11.8,6.9c4-3.2,2.5-12.1,1.8-16.3c-0.2-1.1-0.6-2.9-2.1-2.5
	c-2.3,0.6-2.4,5.1-2.4,6.8c-0.3,7.5,6.2,14.7,13.1,9.6c1.8-1.3,3.4-2.8,5.6-3.5c1.5-0.5,3,0.1,4.5-0.7c1.9-1,0-3.5-1-4.2
	c-4.1-2.8-13.3-1.6-11.6,5.1c0.8,3.3,6.2,4.6,8.9,5.1c3.4,0.7,6.6-0.7,8.9-3.1c1.1-1.2,1.9-2.7,2.4-4.2c-0.7,0-1.4,0-2.2,0
	c0.8,3.6,3,6.8,5.5,9.4c2.5,2.5,5.8,3.7,9.1,4.7c1.7,0.5,14.7,3.5,13.6,6.6c-0.5,1.4,1.7,2,2.2,0.6c1.9-5.2-8.7-7.3-11.7-8.3
	c-7.4-2.3-14.7-5.1-16.6-13.6c-0.3-1.1-1.9-1-2.2,0c-0.9,2.7-3,4.8-5.7,5.6c-2.2,0.7-11.9-1.1-9.9-5.2c1.7-3.4,6.2-2.5,8.4-0.5
	c-0.5-0.4-3.9,0.6-4.5,0.9c-1.6,0.8-3,1.8-4.4,2.9c-3.6,2.9-6.3,2.5-8.9-1.6c-1.7-2.7-1.6-6.3-0.8-9.2c0.4-1.6-0.6-1.2-0.6-1
	c0.1,0.5,0.2,1,0.3,1.5c0.3,1.6,0.4,3.3,0.5,4.9c0.1,2.8,0.3,9.9-4.2,9c-4.8-1-6.2-7.4-6.7-11.5c-0.2-1.6-0.3-3.2-0.2-4.8
	c0-1.2,0.6-2.4-0.3-1.8c-0.6-0.2-1.1-0.4-1.7-0.7c0.9,5.3,12.4,16.4,3,19.5c-3.5,1.1-8.1,0.5-11.4-1.1c-1.8-0.9-2.6-3.7-0.1-2.3
	c1.1,0.6,2.1,1.4,3,2.2C198.9,52.8,200.5,51.3,199.4,50.3L199.4,50.3z"/>
</svg>
