<?xml version="1.0" encoding="utf-8"?>
<!-- Generator: Adobe Illustrator 17.1.0, SVG Export Plug-In . SVG Version: 6.00 Build 0)  -->
<!DOCTYPE svg PUBLIC "-//W3C//DTD SVG 1.1//EN" "http://www.w3.org/Graphics/SVG/1.1/DTD/svg11.dtd">
<svg version="1.1" id="Layer_1" xmlns="http://www.w3.org/2000/svg" xmlns:xlink="http://www.w3.org/1999/xlink" x="0px" y="0px"
	 viewBox="0 0 514.6 67.6" enable-background="new 0 0 514.6 67.6" xml:space="preserve">
<g id="ogm6Z6_1_">
	<g>
		<path fill="#FFFFFF" d="M72.2,1.3C70.5,9.9,65.7,17,61.4,24.5c-2.2,3.8-4.6,7.5-7,11.2c-1.5,2.3-3.1,4.5-4.8,6.6
			c-5.1,6.5-9.9,13.3-16,18.9c-5.4,4.9-11.8,7.3-19.1,6.3c-3.9-0.6-7.3-3-9.6-6.4c-1.6-2.3-3.6-4.2-4.3-7.2c-1.1-4.7-1-8.9,2.4-12.6
			c0.7-0.8,1.1-1.8,1.9-2.5c1-1,2.1-1.9,3.3-2.6c0.9-0.6,2.1-0.6,2.9-1.2c2.7-2.1,5.4-0.7,8,0.1c0.2,0.1,0.4,0.4,0.6,0.6
			c-0.3,0.2-0.6,0.5-1,0.6c-6.8,0.4-10.3,5.2-13.1,10.4c-2.5,4.8-0.4,11.9,4.3,14.9c4.1,2.6,9.6,4,14.9-0.3c3.1-2.5,7-4.2,9.4-7.2
			c4.3-5.4,9.5-10,13-16.1C51,31.2,55.8,25,59.7,18.4c3.1-5.2,5.6-10.7,7.1-16.6C67.5-0.9,72.5-0.1,72.2,1.3z"/>
		<path fill="#FFFFFF" d="M322.7,48.6c-4.7,0-7.8-3-8.1-7.7c-0.4-6.3,1.4-9.6,6.2-11.9c1.6-0.8,3-0.8,4.4,0.4
			c0.7,0.6,1.6,1.3,2.4,1.3c4.2,0.1,8.5,0.6,12.6-0.1c3.6-0.6,6.8,0.3,10.1,0.6c3.9,0.3,7.8,1.3,11.6,2.2c6.3,1.6,12.7,3,18,7.5
			c4.7,4.1,10.4,7,16.4,8.9c3,0.9,5.9,2.1,8.9,2.9c3.7,0.9,7.5,1.9,11.3,2c11,0.3,22.1,0.2,33.1,0c3.4-0.1,6.7-1.1,10.1-1.8
			c1.1-0.2,2.2-0.5,3.4-0.6c6.5-0.8,13-1.9,19.5-2.3c4.6-0.3,9-1.4,13.5-2.4c5.1-1,10.4-1.2,15.6-1.6c0.9-0.1,1.9,0.4,2.9,0.6
			c-0.8,0.6-1.6,1.5-2.5,1.6c-2.4,0.4-10.3,2.2-12.6,3.3c-0.7,0.3-1.6,0.6-2.4,0.7c-8.5,0.8-16.8,2.8-25.1,4.8
			c-3.8,1-7.8,1.1-11.8,1.5c-7.3,0.8-14.7,1.7-22,2.4c-2.5,0.2-5,0.1-7.6,0.2c-6.8,0.3-13.5-0.4-20.1-2.3c-2.6-0.7-5.4-0.7-7.9-1.5
			c-4.8-1.6-9.6-3.4-14.2-5.5c-2.1-1-3.8-2.9-5.8-4.2c-3-2-5.9-4.1-9.1-5.5c-4.7-2-9.6-3.5-14.4-5c-5.2-1.6-10.5-2.7-16-2.6
			c-1.5,0-3.1-1.1-4.5-1c-2.8,0.2-5.6,0.8-8.3,1.5c-0.5,0.1-1,1.4-1.1,2.1c-0.1,0.9,0.4,1.8,0.6,2.7
			C330.9,45.6,328.4,48.6,322.7,48.6z M321.1,44.7c3.1,0,5.3-1.7,5.3-3.9c0-1.1-1.5-3.2-1.6-3.2c-2.1,0.9-4.2,1.9-6.2,3.2
			c-0.3,0.2-0.2,1.8,0.2,2.3C319.6,44,320.7,44.5,321.1,44.7z"/>
		<path fill="#FFFFFF" d="M138.9,52.6c4.8,0.1,8.5-2.1,11.9-5.1c6.1-5.3,10.9-11.6,14.1-19.1c0.8-1.9,2.1-3.6,3.3-5.3
			c0.3-0.4,1.1-0.8,1.5-0.7c0.4,0.1,0.9,0.9,1,1.4c0.1,0.7,0,1.5-0.3,2.2c-3.4,8.7-7.4,17.1-14.3,23.7c-3.8,3.6-8.2,6.2-13.2,7.5
			c-3.7,0.9-7.2-0.3-9.9-2.8c-3.4-3.1-7.1-6-8.1-11c-0.3-1.5-1.5-1.1-2.5-0.3c-2.4,2-4.8,4-7.3,5.9c-3.5,2.7-6.9,5.5-10.6,7.8
			c-5.4,3.3-11.3,0.8-13.2-5.2c-0.3-0.9-0.5-2-0.1-2.8c1.2-2.7,1.1-5.8,3.1-8.4c3.6-4.8,6.4-10.3,9.8-15.3c2.5-3.7,5.3-7.2,8-10.8
			c0.6-0.7,1.3-1.6,2.1-1.8c1.1-0.2,2.6-0.2,3.4,0.5c0.6,0.4,0.7,2.1,0.4,2.9c-1.7,3.8-3.3,7.8-8.1,8.9c-0.4,0.1-0.7,0.4-0.9,0.8
			c-4,6.3-9.3,11.7-11.9,18.8c-0.8,2.1-1.6,4.3-1.8,6.6c-0.2,1.9,1.4,2.9,3.1,2.6c2.3-0.4,5-0.8,6.7-2.2c5.3-4,11.2-7.4,15.5-12.7
			c1-1.3,2.4-2.3,3.6-3.4c1.3-1.2,3.7-0.5,4.4,1.3c0.3,0.9,0.4,2.1,0.2,3.1c-0.9,4.8,1.2,9.8,5.6,12
			C135.6,52.5,137.3,52.4,138.9,52.6z"/>
		<path fill="#FFFFFF" d="M227.4,30.9c1.1-1.8,2.3-3.6,3.3-5.5c1.1-2.2,2-4.5,3.1-6.7c0.4-0.7,1.3-1.5,1.9-1.5
			c0.6,0.1,1.6,1.1,1.6,1.8c0.3,2.4,0.3,4.7-1.5,6.8c-1.3,1.4-2,3.4-2.8,5.2c-1.1,2.5-0.5,3.7,2.2,3.6c4.6-0.2,9.1,0.5,13.7-0.9
			c2.8-0.9,6-0.2,9.1-0.3c7.1-0.4,14.2-0.9,21.2-1.2c1.1-0.1,2.3,0.1,3.3,0.6c0.6,0.3,0.9,1.3,1.3,2c-0.7,0.4-1.3,1.1-2,1.1
			c-2.5,0.1-5,0.1-7.6,0.1c-3.8,0-7.6-0.4-11.3,0.1c-6.2,0.8-12.5,1.1-18.7,1.4c-4.9,0.2-9.8,1.5-14.7,2.4c-0.9,0.2-2,0.9-2.3,1.7
			c-1.8,4.3-3.4,8.7-5.1,13.1c-0.5,1.4-0.9,2.9-1.9,3.9c-0.8,0.8-2.4,1.2-3.5,1.1c-0.9-0.1-2.1-0.8-0.6-2.4c2.1-2.2,3.3-4.9,3.7-8.1
			c0.2-2,1.4-3.9,1.9-5.9c0.3-0.9,0.2-2,0.3-3c-0.9,0.1-1.7,0.2-2.6,0.3c-1,0.1-2,0.4-3.1,0.5c-1.2,0.1-2.3,0-3.5,0
			c-4.6,0.1-5.2,0.7-4.6,5.1l0,0c-1.4-1.6-3.1-3-4.2-4.8c-1.2-1.9-0.3-3.4,1.8-3.9c0.1,0,0.2,0,0.3,0c5.1-0.4,10.1-1,15.2-1.3
			C226,35.8,226.6,35.4,227.4,30.9C227.4,30.9,227.4,30.9,227.4,30.9z"/>
		<path fill="#FFFFFF" d="M199.7,33.4c-0.5,2.9-2.1,5.8-4.1,8.5c-0.4,0.6-1.2,1-1.4,1.6c-0.4,1.2-0.8,2.7-0.5,3.8
			c0.2,0.6,1.8,0.9,2.8,1.3c0.9,0.4,1.9,0.6,2.8,1c-0.3,0.7-0.5,1.9-1,2c-1.1,0.3-2.7,0.6-3.4,0.1c-2.9-2-5.1-4.7-5.3-8.5
			c-0.2-3.7-1-4.1-4.5-2.4c-2.4,1.2-4.8,2.5-7.3,3.5c-2.1,0.9-3.9,0.1-5.3-2.1c-1.2-1.9-0.5-3.4,1-4.7c1.5-1.3,3.2-2.3,4.8-3.5
			c4.5-3.5,9.5-6,14.9-7.7c2.5-0.8,5.6,1.5,6.3,4.7C199.6,31.6,199.6,32.2,199.7,33.4z M193,38.2c0.5-0.4,0.9-0.5,1.1-0.9
			c0.6-1.4,1.3-2.9,1.5-4.4c0.1-0.6-1.1-1.5-1.8-1.9c-0.5-0.2-1.4,0.3-2,0.6c-1.4,0.7-2.7,1.5-4,2.3c1.1,0.7,2.3,1.4,3.3,2.2
			C191.8,36.7,192.3,37.5,193,38.2z"/>
		<path fill="#FFFFFF" d="M290.6,34.2c0-2.2-0.1-4.4,0-6.6c0.1-4.1,3.3-7.2,7.7-7.9c2.5-0.4,6,2.1,6.9,5.3c0.3,1.1,0.1,2.9-0.7,3.6
			c-0.8,0.8-2.5,0.7-3.7,0.9c0-0.4-0.1-0.9,0.1-1.2c0.4-0.8,1-1.6,1.5-2.3c-1-0.5-2-1.2-3-1.3c-2.8-0.2-5,2.1-5.1,5.2
			c-0.1,4,0.3,8-0.1,12c-0.4,3.3-1.4,6.8-2.8,9.8c-0.6,1.3-3,2.2-4.7,2.6c-4.6,1.1-9.3,1.6-13.8-0.6c-0.8-0.4-1.6-1-2.1-1.8
			c-1-1.5-0.3-3.1,1.5-3.2c1.7-0.1,3.6-0.1,5.3,0.4c6.8,2.3,12.8-1.8,13-9C290.6,38.1,290.6,36.2,290.6,34.2z"/>
		<path fill="#FFFFFF" d="M58.3,54.2c0.2,0.7,0.8,1.4,0.6,2c-0.1,0.5-1,1.1-1.5,1.1c-0.5,0-1.1-0.7-1.6-1.1c0.4-0.5,0.9-0.9,1.3-1.4
			C57.6,54.6,58,54.4,58.3,54.2z"/>
		<path fill="#FFFFFF" d="M208.4,46.1c0.2,0.2,0.5,0.3,0.7,0.5C208.9,46.4,208.7,46.2,208.4,46.1C208.5,46.1,208.4,46.1,208.4,46.1z
			"/>
	</g>
</g>
</svg>
